<svg xmlns="http://www.w3.org/2000/svg" viewBox="0 0 800 500" role="img" aria-label="Bankruptcy AI — court documents with fresh case law for arbitration trustees">
  <rect width="800" height="500" fill="#eeeae0"/>
  <g fill="#1e3c14" opacity="0.08">
    <circle cx="40" cy="40" r="1.5"/><circle cx="120" cy="40" r="1.5"/><circle cx="200" cy="40" r="1.5"/><circle cx="280" cy="40" r="1.5"/><circle cx="360" cy="40" r="1.5"/><circle cx="440" cy="40" r="1.5"/><circle cx="520" cy="40" r="1.5"/><circle cx="600" cy="40" r="1.5"/><circle cx="680" cy="40" r="1.5"/><circle cx="760" cy="40" r="1.5"/>
    <circle cx="40" cy="460" r="1.5"/><circle cx="120" cy="460" r="1.5"/><circle cx="200" cy="460" r="1.5"/><circle cx="280" cy="460" r="1.5"/><circle cx="360" cy="460" r="1.5"/><circle cx="440" cy="460" r="1.5"/><circle cx="520" cy="460" r="1.5"/><circle cx="600" cy="460" r="1.5"/><circle cx="680" cy="460" r="1.5"/><circle cx="760" cy="460" r="1.5"/>
  </g>
  <!-- scales of justice, geometric -->
  <g stroke="#1e3c14" stroke-width="1.5" fill="none">
    <line x1="200" y1="120" x2="200" y2="330"/>
    <line x1="110" y1="150" x2="290" y2="150"/>
    <!-- left pan -->
    <line x1="110" y1="150" x2="90" y2="220"/>
    <line x1="110" y1="150" x2="130" y2="220"/>
    <path d="M 78 220 A 32 32 0 0 0 142 220" />
    <!-- right pan -->
    <line x1="290" y1="150" x2="270" y2="220"/>
    <line x1="290" y1="150" x2="310" y2="220"/>
    <path d="M 258 220 A 32 32 0 0 0 322 220" />
    <circle cx="200" cy="120" r="8" fill="#1e3c14"/>
    <rect x="150" y="330" width="100" height="14" rx="7" fill="#1e3c14"/>
  </g>
  <text x="200" y="385" font-family="Menlo, Consolas, monospace" font-size="12" letter-spacing="2" fill="#1e3c14" text-anchor="middle">127-FZ · KAD · EFRSB</text>
  <!-- document stack with AI citations -->
  <g>
    <rect x="470" y="120" width="240" height="270" rx="10" fill="#faf7ef" stroke="#1e3c14" stroke-width="1.5"/>
    <rect x="455" y="105" width="240" height="270" rx="10" fill="#faf7ef" stroke="#1e3c14" stroke-width="1.5"/>
    <text x="477" y="141" font-family="Menlo, Consolas, monospace" font-size="12" letter-spacing="2" fill="#1e3c14">MOTION · DRAFT</text>
    <g stroke="#1e3c14" stroke-width="1.4" opacity="0.5">
      <line x1="477" y1="168" x2="672" y2="168"/>
      <line x1="477" y1="192" x2="672" y2="192"/>
      <line x1="477" y1="216" x2="630" y2="216"/>
    </g>
    <rect x="477" y="240" width="195" height="52" rx="6" fill="none" stroke="#1e3c14" stroke-width="1.2" stroke-dasharray="3 5"/>
    <text x="489" y="262" font-family="Menlo, Consolas, monospace" font-size="11" letter-spacing="1" fill="#1e3c14" opacity="0.7">¶ CITED: SUPREME COURT</text>
    <text x="489" y="280" font-family="Menlo, Consolas, monospace" font-size="11" letter-spacing="1" fill="#1e3c14" opacity="0.7">PRACTICE · 61.2, 61.3</text>
    <text x="477" y="330" font-family="Georgia, 'Times New Roman', serif" font-style="italic" font-size="22" fill="#1e3c14">3–5× faster drafts</text>
  </g>
  <text x="48" y="470" font-family="Menlo, Consolas, monospace" font-size="11" letter-spacing="2" fill="#1e3c14" opacity="0.55">VL / BANKRUPTCY-AI · SELF-HOSTED</text>
  <text x="752" y="470" font-family="Menlo, Consolas, monospace" font-size="11" letter-spacing="2" fill="#1e3c14" opacity="0.55" text-anchor="end">04</text>
</svg>
